<svg width="210" height="66" viewBox="0 0 210 66" fill="none" xmlns="http://www.w3.org/2000/svg">
<g clip-path="url(#clip0_1_266)">
<path d="M110.675 16.5826C110.675 18.961 108.772 20.8769 106.411 20.8769C104.049 20.8769 102.146 18.961 102.146 16.5826C102.146 14.2042 103.983 12.2883 106.411 12.2883C108.838 12.3544 110.675 14.2703 110.675 16.5826ZM93.0929 25.2372C93.0929 25.6336 93.0929 26.2943 93.0929 26.2943C93.0929 26.2943 91.0591 23.6516 86.7292 23.6516C79.5783 23.6516 74.002 29.1351 74.002 36.7327C74.002 44.2643 79.5127 49.8138 86.7292 49.8138C91.1247 49.8138 93.0929 47.1051 93.0929 47.1051V48.2282C93.0929 48.7568 93.4865 49.1532 94.0113 49.1532H99.3253V24.3123C99.3253 24.3123 94.4706 24.3123 94.0113 24.3123C93.4865 24.3123 93.0929 24.7748 93.0929 25.2372ZM93.0929 41.1592C92.1088 42.6126 90.1407 43.8679 87.7789 43.8679C83.5802 43.8679 80.3656 41.2252 80.3656 36.7327C80.3656 32.2402 83.5802 29.5976 87.7789 29.5976C90.0751 29.5976 92.1744 30.9189 93.0929 32.3063V41.1592ZM103.262 24.3123H109.56V49.1532H103.262V24.3123ZM197.338 23.6516C193.009 23.6516 190.975 26.2943 190.975 26.2943V12.3544H184.677V49.1532C184.677 49.1532 189.531 49.1532 189.991 49.1532C190.516 49.1532 190.909 48.6907 190.909 48.2282V47.1051C190.909 47.1051 192.943 49.8138 197.273 49.8138C204.424 49.8138 210 44.2643 210 36.7327C210 29.2012 204.424 23.6516 197.338 23.6516ZM196.289 43.8018C193.861 43.8018 191.959 42.5465 190.975 41.0931V32.2402C191.959 30.9189 194.058 29.5315 196.289 29.5315C200.487 29.5315 203.702 32.1742 203.702 36.6667C203.702 41.1592 200.487 43.8018 196.289 43.8018ZM181.397 34.4204V49.2192H175.098V35.1471C175.098 31.0511 173.786 29.3994 170.244 29.3994C168.341 29.3994 166.373 30.3904 165.127 31.8438V49.1532H158.829V24.3123H163.815C164.339 24.3123 164.733 24.7748 164.733 25.2372V26.2943C166.57 24.3784 168.997 23.6516 171.425 23.6516C174.18 23.6516 176.476 24.4444 178.313 26.03C180.544 27.8799 181.397 30.2583 181.397 34.4204ZM143.543 23.6516C139.213 23.6516 137.179 26.2943 137.179 26.2943V12.3544H130.881V49.1532C130.881 49.1532 135.736 49.1532 136.195 49.1532C136.72 49.1532 137.113 48.6907 137.113 48.2282V47.1051C137.113 47.1051 139.147 49.8138 143.477 49.8138C150.628 49.8138 156.204 44.2643 156.204 36.7327C156.27 29.2012 150.694 23.6516 143.543 23.6516ZM142.493 43.8018C140.066 43.8018 138.163 42.5465 137.179 41.0931V32.2402C138.163 30.9189 140.263 29.5315 142.493 29.5315C146.692 29.5315 149.906 32.1742 149.906 36.6667C149.906 41.1592 146.692 43.8018 142.493 43.8018ZM125.436 23.6516C127.338 23.6516 128.322 23.982 128.322 23.982V29.8619C128.322 29.8619 123.074 28.0781 119.794 31.8438V49.2192H113.496V24.3123C113.496 24.3123 118.351 24.3123 118.81 24.3123C119.335 24.3123 119.728 24.7748 119.728 25.2372V26.2943C120.909 24.9069 123.468 23.6516 125.436 23.6516ZM60.0282 46.9069C59.7002 46.1141 59.3722 45.2553 59.0441 44.5285C58.5193 43.3393 57.9945 42.2162 57.5352 41.1592L57.4696 41.0931C52.9429 31.1832 48.0882 21.1411 42.971 11.2312L42.7742 10.8348C42.2494 9.84384 41.7246 8.78679 41.1997 7.72973C40.5437 6.54054 39.8876 5.28528 38.838 4.0961C36.7386 1.45345 33.7208 0 30.5062 0C27.226 0 24.2738 1.45345 22.1088 3.96396C21.1247 5.15315 20.4031 6.40841 19.747 7.5976C19.2222 8.65465 18.6974 9.71171 18.1725 10.7027L17.9757 11.0991C12.9242 21.009 8.00384 31.0511 3.47713 40.961L3.41153 41.0931C2.9523 42.1501 2.42746 43.2733 1.90263 44.4625C1.5746 45.1892 1.24658 45.982 0.918559 46.8408C0.0657005 49.2853 -0.196718 51.5976 0.131305 53.976C0.852954 58.9309 4.13318 63.0931 8.65989 64.9429C10.3656 65.6697 12.1369 66 13.9739 66C14.4987 66 15.1547 65.9339 15.6796 65.8679C17.8445 65.6036 20.0751 64.8769 22.24 63.6216C24.9298 62.1021 27.4884 59.9219 30.375 56.7507C33.2616 59.9219 35.8858 62.1021 38.5099 63.6216C40.6749 64.8769 42.9054 65.6036 45.0704 65.8679C45.5952 65.9339 46.2513 66 46.7761 66C48.613 66 50.45 65.6697 52.0901 64.9429C56.6824 63.0931 59.897 58.8649 60.6186 53.976C61.1435 51.6637 60.8811 49.3513 60.0282 46.9069ZM30.4406 50.3423C26.8979 45.8498 24.6018 41.6216 23.8145 38.0541C23.4865 36.5345 23.4209 35.2132 23.6177 34.024C23.7489 32.967 24.1426 32.042 24.6674 31.2492C25.9139 29.4655 28.0132 28.3423 30.4406 28.3423C32.868 28.3423 35.0329 29.3994 36.2138 31.2492C36.7386 32.042 37.1322 32.967 37.2635 34.024C37.4603 35.2132 37.3947 36.6006 37.0666 38.0541C36.2794 41.5556 33.9832 45.7838 30.4406 50.3423ZM56.6168 53.4474C56.1575 56.8829 53.8614 59.8559 50.6468 61.1772C49.0723 61.8378 47.3665 62.036 45.6608 61.8378C44.0207 61.6396 42.3806 61.1111 40.6749 60.1201C38.3131 58.7988 35.9514 56.7508 33.196 53.7117C37.5259 48.3604 40.15 43.4715 41.1341 39.1111C41.5933 37.0631 41.659 35.2132 41.4621 33.4955C41.1997 31.8438 40.6093 30.3243 39.6908 29.003C37.6571 26.03 34.2456 24.3123 30.4406 24.3123C26.6355 24.3123 23.2241 26.0961 21.1903 29.003C20.2719 30.3243 19.6814 31.8438 19.419 33.4955C19.1566 35.2132 19.2222 37.1291 19.747 39.1111C20.7311 43.4715 23.4209 48.4264 27.6852 53.7778C24.9954 56.8168 22.568 58.8649 20.2063 60.1862C18.5006 61.1772 16.8605 61.7057 15.2203 61.9039C13.449 62.1021 11.7433 61.8378 10.2344 61.2432C7.01978 59.9219 4.72362 56.9489 4.26439 53.5135C4.06757 51.8619 4.19878 50.2102 4.85483 48.3604C5.05164 47.6997 5.37966 47.039 5.70769 46.2462C6.16692 45.1892 6.69175 44.0661 7.21659 42.9429L7.2822 42.8108C11.8089 32.967 16.6636 22.9249 21.7152 13.1471L21.912 12.7507C22.4368 11.7598 22.9617 10.7027 23.4865 9.71171C24.0113 8.65465 24.6018 7.66366 25.3234 6.8048C26.7011 5.21922 28.5381 4.36036 30.5718 4.36036C32.6055 4.36036 34.4425 5.21922 35.8202 6.8048C36.5418 7.66366 37.1322 8.65465 37.6571 9.71171C38.1819 10.7027 38.7067 11.7598 39.2316 12.7507L39.4284 13.1471C44.4143 22.991 49.2691 33.033 53.7958 42.8769V42.9429C54.3206 44 54.7799 45.1892 55.3047 46.2462C55.6327 47.039 55.9607 47.6997 56.1575 48.3604C56.6824 50.0781 56.8792 51.7297 56.6168 53.4474Z" fill="#9A9B9B"/>
</g>
<defs>
<clipPath id="clip0_1_266">
<rect width="210" height="66" fill="white"/>
</clipPath>
</defs>
</svg>
