<svg width="210" height="66" viewBox="0 0 210 66" fill="none" xmlns="http://www.w3.org/2000/svg">
<g clip-path="url(#clip0_2209_380)">
<path d="M110.675 16.5826C110.675 18.961 108.772 20.8769 106.41 20.8769C104.049 20.8769 102.146 18.961 102.146 16.5826C102.146 14.2042 103.983 12.2883 106.41 12.2883C108.838 12.3544 110.675 14.2703 110.675 16.5826ZM93.0928 25.2372C93.0928 25.6336 93.0928 26.2943 93.0928 26.2943C93.0928 26.2943 91.059 23.6516 86.7291 23.6516C79.5782 23.6516 74.0018 29.1351 74.0018 36.7327C74.0018 44.2643 79.5126 49.8138 86.7291 49.8138C91.1246 49.8138 93.0928 47.1051 93.0928 47.1051V48.2282C93.0928 48.7568 93.4864 49.1532 94.0112 49.1532H99.3252V24.3123C99.3252 24.3123 94.4705 24.3123 94.0112 24.3123C93.4864 24.3123 93.0928 24.7748 93.0928 25.2372ZM93.0928 41.1592C92.1087 42.6126 90.1405 43.8679 87.7788 43.8679C83.5801 43.8679 80.3655 41.2252 80.3655 36.7327C80.3655 32.2402 83.5801 29.5976 87.7788 29.5976C90.075 29.5976 92.1743 30.9189 93.0928 32.3063V41.1592ZM103.261 24.3123H109.559V49.1532H103.261V24.3123ZM197.338 23.6516C193.008 23.6516 190.975 26.2943 190.975 26.2943V12.3544H184.677V49.1532C184.677 49.1532 189.531 49.1532 189.991 49.1532C190.515 49.1532 190.909 48.6907 190.909 48.2282V47.1051C190.909 47.1051 192.943 49.8138 197.273 49.8138C204.424 49.8138 210 44.2643 210 36.7327C210 29.2012 204.424 23.6516 197.338 23.6516ZM196.289 43.8018C193.861 43.8018 191.959 42.5465 190.975 41.0931V32.2402C191.959 30.9189 194.058 29.5315 196.289 29.5315C200.487 29.5315 203.702 32.1742 203.702 36.6667C203.702 41.1592 200.487 43.8018 196.289 43.8018ZM181.396 34.4204V49.2192H175.098V35.1471C175.098 31.0511 173.786 29.3994 170.244 29.3994C168.341 29.3994 166.373 30.3904 165.126 31.8438V49.1532H158.828V24.3123H163.814C164.339 24.3123 164.733 24.7748 164.733 25.2372V26.2943C166.57 24.3784 168.997 23.6516 171.425 23.6516C174.18 23.6516 176.476 24.4444 178.313 26.03C180.544 27.8799 181.396 30.2583 181.396 34.4204ZM143.543 23.6516C139.213 23.6516 137.179 26.2943 137.179 26.2943V12.3544H130.881V49.1532C130.881 49.1532 135.736 49.1532 136.195 49.1532C136.72 49.1532 137.113 48.6907 137.113 48.2282V47.1051C137.113 47.1051 139.147 49.8138 143.477 49.8138C150.628 49.8138 156.204 44.2643 156.204 36.7327C156.27 29.2012 150.693 23.6516 143.543 23.6516ZM142.493 43.8018C140.066 43.8018 138.163 42.5465 137.179 41.0931V32.2402C138.163 30.9189 140.262 29.5315 142.493 29.5315C146.692 29.5315 149.906 32.1742 149.906 36.6667C149.906 41.1592 146.692 43.8018 142.493 43.8018ZM125.436 23.6516C127.338 23.6516 128.322 23.982 128.322 23.982V29.8619C128.322 29.8619 123.074 28.0781 119.794 31.8438V49.2192H113.496V24.3123C113.496 24.3123 118.35 24.3123 118.81 24.3123C119.335 24.3123 119.728 24.7748 119.728 25.2372V26.2943C120.909 24.9069 123.468 23.6516 125.436 23.6516ZM60.0281 46.9069C59.7001 46.1141 59.372 45.2553 59.044 44.5285C58.5192 43.3393 57.9943 42.2162 57.5351 41.1592L57.4695 41.0931C52.9428 31.1832 48.0881 21.1411 42.9709 11.2312L42.7741 10.8348C42.2493 9.84384 41.7244 8.78679 41.1996 7.72973C40.5436 6.54054 39.8875 5.28528 38.8378 4.0961C36.7385 1.45345 33.7207 0 30.5061 0C27.2258 0 24.2736 1.45345 22.1087 3.96396C21.1246 5.15315 20.403 6.40841 19.7469 7.5976C19.2221 8.65465 18.6973 9.71171 18.1724 10.7027L17.9756 11.0991C12.9241 21.009 8.00372 31.0511 3.47701 40.961L3.41141 41.0931C2.95218 42.1501 2.42734 43.2733 1.9025 44.4625C1.57448 45.1892 1.24646 45.982 0.918437 46.8408C0.0655784 49.2853 -0.19684 51.5976 0.131183 53.976C0.852832 58.9309 4.13306 63.0931 8.65977 64.9429C10.3655 65.6697 12.1368 66 13.9737 66C14.4986 66 15.1546 65.9339 15.6794 65.8679C17.8444 65.6036 20.075 64.8769 22.2399 63.6216C24.9297 62.1021 27.4883 59.9219 30.3749 56.7507C33.2615 59.9219 35.8856 62.1021 38.5098 63.6216C40.6748 64.8769 42.9053 65.6036 45.0703 65.8679C45.5951 65.9339 46.2511 66 46.776 66C48.6129 66 50.4498 65.6697 52.0899 64.9429C56.6823 63.0931 59.8969 58.8649 60.6185 53.976C61.1434 51.6637 60.8809 49.3513 60.0281 46.9069ZM30.4405 50.3423C26.8978 45.8498 24.6017 41.6216 23.8144 38.0541C23.4864 36.5345 23.4208 35.2132 23.6176 34.024C23.7488 32.967 24.1424 32.042 24.6673 31.2492C25.9137 29.4655 28.0131 28.3423 30.4405 28.3423C32.8678 28.3423 35.0328 29.3994 36.2137 31.2492C36.7385 32.042 37.1321 32.967 37.2633 34.024C37.4601 35.2132 37.3945 36.6006 37.0665 38.0541C36.2793 41.5556 33.9831 45.7838 30.4405 50.3423ZM56.6167 53.4474C56.1574 56.8829 53.8613 59.8559 50.6466 61.1772C49.0721 61.8378 47.3664 62.036 45.6607 61.8378C44.0206 61.6396 42.3805 61.1111 40.6748 60.1201C38.313 58.7988 35.9512 56.7508 33.1959 53.7117C37.5257 48.3604 40.1499 43.4715 41.134 39.1111C41.5932 37.0631 41.6588 35.2132 41.462 33.4955C41.1996 31.8438 40.6092 30.3243 39.6907 29.003C37.657 26.03 34.2455 24.3123 30.4405 24.3123C26.6354 24.3123 23.224 26.0961 21.1902 29.003C20.2718 30.3243 19.6813 31.8438 19.4189 33.4955C19.1565 35.2132 19.2221 37.1291 19.7469 39.1111C20.731 43.4715 23.4208 48.4264 27.6851 53.7778C24.9953 56.8168 22.5679 58.8649 20.2062 60.1862C18.5004 61.1772 16.8603 61.7057 15.2202 61.9039C13.4489 62.1021 11.7432 61.8378 10.2343 61.2432C7.01966 59.9219 4.7235 56.9489 4.26427 53.5135C4.06745 51.8619 4.19866 50.2102 4.85471 48.3604C5.05152 47.6997 5.37954 47.039 5.70756 46.2462C6.1668 45.1892 6.69163 44.0661 7.21647 42.9429L7.28207 42.8108C11.8088 32.967 16.6635 22.9249 21.7151 13.1471L21.9119 12.7507C22.4367 11.7598 22.9615 10.7027 23.4864 9.71171C24.0112 8.65465 24.6017 7.66366 25.3233 6.8048C26.701 5.21922 28.5379 4.36036 30.5717 4.36036C32.6054 4.36036 34.4423 5.21922 35.82 6.8048C36.5417 7.66366 37.1321 8.65465 37.657 9.71171C38.1818 10.7027 38.7066 11.7598 39.2315 12.7507L39.4283 13.1471C44.4142 22.991 49.2689 33.033 53.7957 42.8769V42.9429C54.3205 44 54.7797 45.1892 55.3046 46.2462C55.6326 47.039 55.9606 47.6997 56.1574 48.3604C56.6823 50.0781 56.8791 51.7297 56.6167 53.4474Z" fill="#101010"/>
</g>
<defs>
<clipPath id="clip0_2209_380">
<rect width="210" height="66" fill="white"/>
</clipPath>
</defs>
</svg>
