<svg width="218" height="32" viewBox="0 0 218 32" fill="none" xmlns="http://www.w3.org/2000/svg">
<path d="M0 24.8304H29.4812L27.8706 27.0449H0V24.8304Z" fill="#101010"/>
<path d="M0 20.7238H32.4764L30.8626 22.9339H0V20.7238Z" fill="#101010"/>
<path d="M0 28.9413H26.4881L24.8843 31.1401H0V28.9413Z" fill="#101010"/>
<path d="M218 27.0446H188.635L190.244 24.8324H218V27.0446Z" fill="#101010"/>
<path d="M218 31.1399L185.648 31.1422L187.251 28.9411H218V31.1399Z" fill="#101010"/>
<path d="M193.236 20.7236H218V22.9358L191.625 22.9369L193.236 20.7236Z" fill="#101010"/>
<path d="M28.5542 31.1397L42.5439 11.9396H59.904C61.8229 11.9396 61.7978 12.6755 60.8606 13.9592C59.9083 15.2625 58.2876 17.5037 57.3176 18.8267C56.8254 19.4989 55.935 20.7234 58.8847 20.7234H82.1417C80.2075 23.3999 73.9333 31.1397 62.6683 31.1397H28.5542Z" fill="#101010"/>
<path d="M108.673 20.7215L101.087 31.1394H81.0749C81.0749 31.1394 88.6573 20.7231 88.6641 20.7231L108.673 20.7215Z" fill="#101010"/>
<path d="M137.611 20.7233L130.021 31.1396H110.017C110.017 31.1396 117.6 20.7233 117.607 20.7233H137.611Z" fill="#101010"/>
<path d="M144.119 20.7233C144.12 20.7233 142.657 22.7427 141.947 23.7119C139.434 27.1425 141.655 31.1386 149.856 31.1386H181.984L189.572 20.7222L144.119 20.7233Z" fill="#101010"/>
<path d="M38.3374 0L31.3724 9.55904H69.3321C71.2506 9.55904 71.2255 10.295 70.2878 11.5786C69.3355 12.8805 67.7414 15.1473 66.7715 16.4704C66.2791 17.1411 65.3888 18.3655 68.3386 18.3655H83.8615C83.8615 18.3655 86.3641 14.9258 88.4609 12.0505C91.3143 8.13887 88.7083 0 78.5078 0H38.3374Z" fill="#101010"/>
<path d="M139.33 18.3657H90.3832L103.768 0.000152588H123.773L116.103 10.5301H125.032L132.708 0.000152588H152.71L139.33 18.3657Z" fill="#101010"/>
<path d="M180.415 0.000152588L167.034 18.3657H145.835C145.835 18.3657 159.221 0.000152588 159.228 0.000152588H180.415Z" fill="#101010"/>
</svg>
