<svg width="216" height="42" viewBox="0 0 216 42" fill="none" xmlns="http://www.w3.org/2000/svg">
<g clip-path="url(#clip0_1_306)">
<path d="M25.056 7.89233L12.528 15.7847L25.056 23.677L12.528 31.5693L0 23.6343L12.528 15.742L0 7.89233L12.528 0L25.056 7.89233ZM12.4632 34.1077L24.9912 26.2153L37.5192 34.1077L24.9912 42L12.4632 34.1077ZM25.056 23.6343L37.584 15.742L25.056 7.89233L37.5192 0L50.0472 7.89233L37.5192 15.7847L50.0472 23.677L37.5192 31.5693L25.056 23.6343Z" fill="#9A9B9B"/>
<path d="M59.8752 7.8924H70.0056C76.464 7.8924 81.7992 11.5826 81.7992 20.0082V21.7786C81.7992 30.2682 76.8096 34.0864 70.2 34.0864H59.8752V7.8924ZM65.5344 12.6491V29.3083H69.876C73.548 29.3083 76.0104 26.9406 76.0104 21.672V20.2855C76.0104 15.0168 73.4184 12.6491 69.6816 12.6491H65.5344ZM84.8016 12.9051H89.3376L90.072 17.8325C90.936 14.4836 93.1392 12.6918 97.1352 12.6918H98.5392V18.3444H96.2064C91.6056 18.3444 90.4824 19.9229 90.4824 24.4023V34.1504H84.888V12.9051H84.8016ZM99.6624 23.9544V23.3571C99.6624 16.254 104.263 12.3718 110.527 12.3718C116.921 12.3718 121.392 16.254 121.392 23.3571V23.9544C121.392 30.9295 117.05 34.6837 110.527 34.6837C103.594 34.6197 99.6624 30.9508 99.6624 23.9544ZM115.668 23.8904V23.3571C115.668 19.4109 113.659 17.0432 110.462 17.0432C107.33 17.0432 105.257 19.219 105.257 23.3571V23.8904C105.257 27.7086 107.266 29.8843 110.462 29.8843C113.659 29.8203 115.668 27.7086 115.668 23.8904ZM124.33 12.9051H128.995L129.535 16.9153C130.658 14.2276 133.056 12.3718 136.598 12.3718C142.063 12.3718 145.67 16.254 145.67 23.4424V24.0397C145.67 31.0148 141.674 34.705 136.598 34.705C133.207 34.705 130.874 33.1905 129.73 30.7588V41.4881H124.265L124.33 12.9051ZM139.99 23.8904V23.4211C139.99 19.1976 137.786 17.1072 134.849 17.1072C131.717 17.1072 129.643 19.4749 129.643 23.4211V23.8264C129.643 27.5806 131.652 29.9483 134.784 29.9483C138.002 29.8843 139.99 27.8579 139.99 23.8904ZM153.943 30.2256L153.468 34.1077H148.673V5.802H154.138V16.6593C155.347 13.8863 157.745 12.3718 161.136 12.3718C166.277 12.4358 170.078 15.934 170.078 22.9732V23.6344C170.078 30.6735 166.471 34.705 161.006 34.705C157.399 34.6197 155.066 32.9772 153.943 30.2256ZM164.333 23.6344V23.1011C164.333 19.219 162.194 17.0432 159.192 17.0432C156.125 17.0432 153.986 19.4749 153.986 23.1651V23.6344C153.986 27.5806 156.06 29.8843 159.127 29.8843C162.41 29.8843 164.333 27.8579 164.333 23.6344ZM172.476 23.9544V23.3571C172.476 16.254 177.077 12.3718 183.341 12.3718C189.734 12.3718 194.206 16.254 194.206 23.3571V23.9544C194.206 30.9295 189.799 34.6837 183.341 34.6837C176.407 34.6197 172.476 30.9508 172.476 23.9544ZM188.525 23.8904V23.3571C188.525 19.4109 186.516 17.0432 183.319 17.0432C180.187 17.0432 178.114 19.219 178.114 23.3571V23.8904C178.114 27.7086 180.122 29.8843 183.319 29.8843C186.538 29.8203 188.525 27.7086 188.525 23.8904ZM201.528 23.1011L193.99 12.9051H200.448L204.79 19.283L209.196 12.9051H215.59L207.943 23.0371L216 34.1077H209.671L204.746 27.0686L199.951 34.1077H193.342L201.528 23.1011Z" fill="#9A9B9B"/>
</g>
<defs>
<clipPath id="clip0_1_306">
<rect width="216" height="42" fill="white"/>
</clipPath>
</defs>
</svg>
