<svg width="179" height="56" viewBox="0 0 179 56" fill="none" xmlns="http://www.w3.org/2000/svg">
<g clip-path="url(#clip0_2209_426)">
<path d="M22.391 19.9818V25.9636H36.8492C36.4653 29.2727 35.3138 31.8182 33.5225 33.4727C31.4753 35.5091 28.1487 37.8 22.391 37.8C13.5625 37.8 6.65332 30.6727 6.65332 21.8909C6.65332 13.1091 13.4346 5.98182 22.391 5.98182C27.1251 5.98182 30.7077 7.89091 33.2666 10.3091L37.4889 6.10909C33.9064 2.67273 29.0443 0 22.391 0C10.2359 0 0 9.8 0 21.8909C0 33.9818 10.2359 43.7818 22.391 43.7818C28.9164 43.7818 33.9064 41.6182 37.7448 37.6727C41.7112 33.7273 42.9907 28.1273 42.9907 23.6727C42.9907 22.2727 42.8628 21 42.7348 19.9818H22.391Z" fill="#101010"/>
<path d="M60.9035 15.0182C53.0986 15.0182 46.5732 21 46.5732 29.1455C46.5732 37.2909 52.9707 43.2727 60.9035 43.2727C68.8363 43.2727 75.2337 37.4182 75.2337 29.2727C75.2337 21 68.8363 15.0182 60.9035 15.0182ZM60.9035 37.8C56.5532 37.8 52.8427 34.2364 52.8427 29.2727C52.8427 24.1818 56.5532 20.7455 60.9035 20.7455C65.2537 20.7455 68.9642 24.1818 68.9642 29.2727C68.9642 34.2364 65.2537 37.8 60.9035 37.8Z" fill="#101010"/>
<path d="M130.891 18.2H130.635C129.228 16.5455 126.541 15.0182 123.086 15.0182C115.921 15.0182 109.78 21.1273 109.78 29.1455C109.78 37.0364 115.921 43.2727 123.086 43.2727C126.541 43.2727 129.228 41.7455 130.635 40.0909H130.891V42.1273C130.891 47.4727 127.948 50.4 123.342 50.4C119.504 50.4 117.201 47.7273 116.177 45.3091L110.803 47.6C112.339 51.2909 116.561 56 123.47 56C130.763 56 137.033 51.6727 137.033 41.2364V15.7818H131.147V18.2H130.891ZM123.726 37.8C119.376 37.8 116.177 34.1091 116.177 29.2727C116.177 24.3091 119.504 20.7455 123.726 20.7455C127.948 20.7455 131.275 24.4364 131.275 29.4C131.403 34.2364 128.076 37.8 123.726 37.8Z" fill="#101010"/>
<path d="M92.7627 15.0182C84.9579 15.0182 78.4325 21 78.4325 29.1455C78.4325 37.2909 84.8299 43.2727 92.7627 43.2727C100.696 43.2727 107.093 37.4182 107.093 29.2727C107.093 21 100.696 15.0182 92.7627 15.0182ZM92.7627 37.8C88.4125 37.8 84.702 34.2364 84.702 29.2727C84.702 24.1818 88.4125 20.7455 92.7627 20.7455C97.113 20.7455 100.823 24.1818 100.823 29.2727C100.823 34.2364 97.113 37.8 92.7627 37.8Z" fill="#101010"/>
<path d="M141.767 0.636368H147.908V43.4H141.767V0.636368Z" fill="#101010"/>
<path d="M166.845 37.8C163.646 37.8 161.471 36.4 159.936 33.4727L179 25.7091L178.36 24.0546C177.209 20.8727 173.498 15.0182 166.205 15.0182C158.912 15.0182 152.771 20.7455 152.771 29.1455C152.771 37.0364 158.784 43.2727 166.845 43.2727C173.37 43.2727 177.081 39.3273 178.744 37.0364L173.882 33.8546C172.219 36.2727 170.044 37.8 166.845 37.8ZM166.461 20.3636C169.02 20.3636 171.195 21.6364 171.835 23.4182L159.04 28.7636C158.912 22.9091 163.262 20.3636 166.461 20.3636Z" fill="#101010"/>
</g>
<defs>
<clipPath id="clip0_2209_426">
<rect width="179" height="56" fill="white"/>
</clipPath>
</defs>
</svg>
