<svg width="186" height="64" viewBox="0 0 186 64" fill="none" xmlns="http://www.w3.org/2000/svg">
<path d="M167.732 26.0486C169.967 26.0486 171.778 24.2386 171.778 22.0059C171.778 19.7732 169.967 17.9633 167.732 17.9633C165.497 17.9633 163.686 19.7732 163.686 22.0059C163.686 24.2386 165.497 26.0486 167.732 26.0486Z" fill="#9A9B9B"/>
<path d="M109.938 39.2446C111.923 39.2446 113.068 37.7572 112.992 36.3079C112.954 35.5452 112.878 35.0494 112.801 34.668C111.58 29.4049 107.304 25.5148 102.227 25.5148C96.196 25.5148 91.3098 30.9686 91.3098 37.6809C91.3098 44.3933 96.196 49.8471 102.227 49.8471C106.006 49.8471 108.717 48.4741 110.664 46.3002C111.618 45.2323 111.427 43.5924 110.282 42.7915C109.327 42.1431 108.144 42.372 107.266 43.0966C106.426 43.8212 104.823 45.2705 102.227 45.2705C99.1734 45.2705 96.5777 42.6389 96.0051 39.1683H109.938V39.2446ZM102.189 30.1295C104.938 30.1295 107.304 32.2653 108.182 35.2019H96.196C97.0739 32.2271 99.4407 30.1295 102.189 30.1295Z" fill="#9A9B9B"/>
<path d="M91.5387 27.9172C91.5387 26.7731 90.6989 25.8578 89.6301 25.6671C86.309 25.1713 83.1788 26.3917 81.3847 28.6419V28.3368C81.3847 26.9257 80.2395 26.0485 79.0943 26.0485C77.8346 26.0485 76.804 27.0782 76.804 28.3368V47.0246C76.804 48.245 77.7201 49.3129 78.9416 49.3892C80.2777 49.4655 81.3847 48.4357 81.3847 47.1009V37.4519C81.3847 33.1804 84.5912 29.6716 89.0193 30.1674C89.172 30.1674 89.3247 30.1674 89.4774 30.1674C90.6226 30.0911 91.5387 29.0995 91.5387 27.9172Z" fill="#9A9B9B"/>
<path d="M170.023 30.3584C170.023 29.0998 168.992 28.0701 167.732 28.0701C166.473 28.0701 165.442 29.0998 165.442 30.3584C165.442 30.4347 165.442 46.3765 165.442 47.1011C165.442 48.3597 166.473 49.3894 167.732 49.3894C168.992 49.3894 170.023 48.3597 170.023 47.1011C170.023 46.4146 170.023 30.4728 170.023 30.3584Z" fill="#9A9B9B"/>
<path d="M135.972 17.6963C135.972 16.4377 134.942 15.408 133.682 15.408C132.422 15.408 131.392 16.4377 131.392 17.6963V27.8792C129.826 26.3155 127.88 25.5528 125.551 25.5528C119.52 25.5528 114.634 31.0066 114.634 37.7189C114.634 44.4313 119.52 49.8851 125.551 49.8851C127.88 49.8851 129.865 49.0842 131.43 47.5205C131.621 48.5884 132.575 49.3893 133.682 49.3893C134.942 49.3893 135.972 48.3596 135.972 47.101V17.6963ZM125.589 45.3466C122.077 45.3466 119.252 41.9523 119.252 37.7189C119.252 33.5237 122.077 30.0912 125.589 30.0912C129.101 30.0912 131.926 33.4856 131.926 37.7189C131.926 41.9523 129.063 45.3466 125.589 45.3466Z" fill="#9A9B9B"/>
<path d="M159.868 17.6963C159.868 16.4377 158.838 15.408 157.578 15.408C156.318 15.408 155.288 16.4377 155.288 17.6963V27.8792C153.723 26.3155 151.776 25.5528 149.447 25.5528C143.416 25.5528 138.53 31.0066 138.53 37.7189C138.53 44.4313 143.416 49.8851 149.447 49.8851C151.776 49.8851 153.761 49.0842 155.326 47.5205C155.517 48.5884 156.471 49.3893 157.578 49.3893C158.838 49.3893 159.868 48.3596 159.868 47.101V17.6963ZM149.447 45.3466C145.935 45.3466 143.111 41.9523 143.111 37.7189C143.111 33.5237 145.935 30.0912 149.447 30.0912C152.959 30.0912 155.784 33.4856 155.784 37.7189C155.784 41.9523 152.959 45.3466 149.447 45.3466Z" fill="#9A9B9B"/>
<path d="M181.627 47.1392V30.1294H183.65C184.719 30.1294 185.673 29.3285 185.75 28.2225C185.826 27.0402 184.872 26.0486 183.727 26.0486H181.627V22.845C181.627 21.6246 180.711 20.5567 179.489 20.4804C178.153 20.4041 177.046 21.4339 177.046 22.7687V26.0868H175.138C174.069 26.0868 173.115 26.8877 173.038 27.9937C172.962 29.176 173.916 30.1676 175.061 30.1676H177.008V47.1773C177.008 48.4359 178.039 49.4656 179.299 49.4656C180.635 49.3893 181.627 48.3977 181.627 47.1392Z" fill="#9A9B9B"/>
<path d="M31.989 63.92C49.656 63.92 63.978 49.611 63.978 31.96C63.978 14.309 49.656 0 31.989 0C14.322 0 0 14.309 0 31.96C0 49.611 14.322 63.92 31.989 63.92Z" fill="#9A9B9B"/>
<path d="M53.3277 31.9598C53.3277 29.3664 51.2281 27.3069 48.6705 27.3069C47.4108 27.3069 46.2656 27.8027 45.4258 28.6036C42.2193 26.3153 37.8294 24.8279 32.9433 24.6372L35.0809 14.6449L42.0284 16.1323C42.1048 17.8867 43.5554 19.2978 45.3495 19.2978C47.1818 19.2978 48.6705 17.8104 48.6705 15.9798C48.6705 14.1491 47.1818 12.6617 45.3495 12.6617C44.0516 12.6617 42.9064 13.4245 42.372 14.5305L34.6229 12.8906C34.3938 12.8524 34.1648 12.8906 34.0121 13.005C33.8212 13.1194 33.7067 13.3101 33.6685 13.5389L31.3018 24.6753C26.3393 24.8279 21.8731 26.3153 18.6284 28.6417C17.7886 27.8408 16.6434 27.345 15.3837 27.345C12.7879 27.345 10.7266 29.4426 10.7266 31.9979C10.7266 33.9048 11.8718 35.5067 13.475 36.2313C13.3987 36.689 13.3605 37.1466 13.3605 37.6424C13.3605 44.8124 21.7204 50.6476 32.0271 50.6476C42.3338 50.6476 50.6937 44.8506 50.6937 37.6424C50.6937 37.1848 50.6555 36.689 50.5792 36.2313C52.1825 35.5067 53.3277 33.8667 53.3277 31.9598ZM21.3387 35.2778C21.3387 33.4472 22.8274 31.9598 24.6597 31.9598C26.492 31.9598 27.9808 33.4472 27.9808 35.2778C27.9808 37.1085 26.492 38.5959 24.6597 38.5959C22.8274 38.634 21.3387 37.1085 21.3387 35.2778ZM39.9289 44.0878C37.6385 46.3761 33.2868 46.5287 32.0271 46.5287C30.7292 46.5287 26.3775 46.338 24.1253 44.0878C23.7817 43.7446 23.7817 43.2106 24.1253 42.8674C24.4688 42.5241 25.0033 42.5241 25.3468 42.8674C26.7974 44.3166 29.8512 44.8124 32.0271 44.8124C34.203 44.8124 37.295 44.3166 38.7074 42.8674C39.0509 42.5241 39.5854 42.5241 39.9289 42.8674C40.2343 43.2106 40.2343 43.7446 39.9289 44.0878ZM39.3182 38.634C37.4858 38.634 35.9971 37.1466 35.9971 35.316C35.9971 33.4853 37.4858 31.9979 39.3182 31.9979C41.1505 31.9979 42.6392 33.4853 42.6392 35.316C42.6392 37.1085 41.1505 38.634 39.3182 38.634Z" fill="white"/>
</svg>
