         <svg width="211" height="64" viewBox="0 0 211 64" fill="none" xmlns="http://www.w3.org/2000/svg">
            <g opacity="0.4">
            <path d="M50.2905 28.7761C40.1049 22.7206 23.3039 22.1638 13.5804 25.1182C12.0189 25.5922 10.3678 24.7098 9.89462 23.1467C9.42148 21.5828 10.302 19.9309 11.8646 19.4557C23.0265 16.0635 41.5814 16.7189 53.3073 23.6872C54.7121 24.5217 55.1728 26.3375 54.34 27.7416C53.5069 29.1474 51.6916 29.6108 50.2905 28.7761ZM49.957 37.7455C49.2427 38.9064 47.7266 39.2702 46.5685 38.5578C38.0767 33.3321 25.1277 31.8183 15.0813 34.8712C13.7785 35.2653 12.4024 34.53 12.0068 33.2281C11.6141 31.9238 12.349 30.5487 13.6495 30.1521C25.1263 26.6658 39.3932 28.3544 49.1465 34.3549C50.3045 35.0688 50.669 36.5874 49.957 37.7455ZM46.0905 46.3593C45.523 47.2913 44.3102 47.5836 43.3827 47.0155C35.9623 42.4755 26.6226 41.4498 15.6234 43.9652C14.5633 44.2085 13.5071 43.5433 13.2652 42.4825C13.0225 41.4215 13.6842 40.3642 14.7466 40.122C26.7833 37.3673 37.1085 38.5529 45.4373 43.648C46.3659 44.2156 46.6583 45.4302 46.0905 46.3593ZM31.599 0.732105C14.1477 0.732105 0 14.8947 0 32.3655C0 49.8377 14.1477 64 31.599 64C49.051 64 63.1979 49.8377 63.1979 32.3655C63.1979 14.8947 49.051 0.732105 31.599 0.732105Z" fill="#101010"/>
            <path d="M85.9698 29.9354C80.514 28.6329 79.5424 27.7186 79.5424 25.7982C79.5424 23.9832 81.2494 22.7623 83.7874 22.7623C86.2476 22.7623 88.6866 23.6896 91.2445 25.5988C91.3219 25.6566 91.4189 25.6796 91.5143 25.6645C91.6098 25.6502 91.6939 25.598 91.7502 25.5187L94.4141 21.7593C94.5235 21.6048 94.4937 21.391 94.3462 21.2728C91.3023 18.8276 87.8746 17.6388 83.8681 17.6388C77.9772 17.6388 73.8624 21.1776 73.8624 26.2417C73.8624 31.672 77.412 33.5946 83.5459 35.0787C88.7666 36.2826 89.6477 37.2911 89.6477 39.0944C89.6477 41.0922 87.8659 42.3343 84.9986 42.3343C81.8143 42.3343 79.2164 41.2604 76.3105 38.7411C76.2385 38.6791 76.1396 38.6505 76.0483 38.6557C75.9525 38.6637 75.8645 38.7082 75.8034 38.7818L72.8165 42.3406C72.6912 42.4884 72.707 42.709 72.8516 42.8366C76.2328 45.8583 80.3906 47.4546 84.8778 47.4546C91.2257 47.4546 95.3276 43.982 95.3276 38.6077C95.3276 34.0657 92.6169 31.5538 85.9698 29.9354Z" fill="#101010"/>
            <path d="M114.297 36.0231C114.297 39.8585 111.937 42.5347 108.558 42.5347C105.218 42.5347 102.698 39.7369 102.698 36.0231C102.698 32.3099 105.218 29.5117 108.558 29.5117C111.883 29.5117 114.297 32.2495 114.297 36.0231ZM109.689 24.549C106.938 24.549 104.681 25.6339 102.82 27.857V25.3547C102.82 25.1572 102.66 24.9962 102.463 24.9962H97.5777C97.3803 24.9962 97.2207 25.1572 97.2207 25.3547V53.1579C97.2207 53.3555 97.3803 53.5164 97.5777 53.5164H102.463C102.66 53.5164 102.82 53.3555 102.82 53.1579V44.3821C104.681 46.4732 106.938 47.4946 109.689 47.4946C114.802 47.4946 119.977 43.5547 119.977 36.0231C119.977 28.4899 114.802 24.549 109.689 24.549Z" fill="#101010"/>
            <path d="M133.243 42.5747C129.741 42.5747 127.101 39.7578 127.101 36.0229C127.101 32.2724 129.65 29.5507 133.163 29.5507C136.687 29.5507 139.345 32.3675 139.345 36.1048C139.345 39.8549 136.779 42.5747 133.243 42.5747ZM133.243 24.5488C126.659 24.5488 121.501 29.6244 121.501 36.1048C121.501 42.5149 126.624 47.5372 133.163 47.5372C139.77 47.5372 144.944 42.4788 144.944 36.0229C144.944 29.5888 139.806 24.5488 133.243 24.5488Z" fill="#101010"/>
            <path d="M159.004 24.9958H153.628V19.4935C153.628 19.296 153.469 19.1354 153.272 19.1354H148.387C148.189 19.1354 148.029 19.296 148.029 19.4935V24.9958H145.68C145.483 24.9958 145.324 25.1568 145.324 25.3543V29.5574C145.324 29.7549 145.483 29.9157 145.68 29.9157H148.029V40.7918C148.029 45.187 150.214 47.4153 154.523 47.4153C156.276 47.4153 157.729 47.053 159.1 46.2753C159.211 46.213 159.28 46.0929 159.28 45.9651V41.9626C159.28 41.8389 159.216 41.7226 159.111 41.6577C159.004 41.5909 158.872 41.5875 158.763 41.6415C157.822 42.1154 156.912 42.3342 155.895 42.3342C154.328 42.3342 153.628 41.6221 153.628 40.0254V29.9157H159.004C159.201 29.9157 159.36 29.7549 159.36 29.5574V25.3543C159.36 25.1568 159.201 24.9958 159.004 24.9958Z" fill="#101010"/>
            <path d="M177.734 25.0173V24.3415C177.734 22.3534 178.495 21.4668 180.203 21.4668C181.221 21.4668 182.039 21.6693 182.956 21.9753C183.068 22.0108 183.186 21.993 183.278 21.9254C183.372 21.8578 183.425 21.7494 183.425 21.6346V17.5133C183.425 17.3558 183.324 17.2164 183.173 17.1703C182.205 16.8821 180.967 16.5859 179.112 16.5859C174.6 16.5859 172.215 19.1297 172.215 23.9396V24.9746H169.868C169.671 24.9746 169.51 25.1352 169.51 25.3327V29.5574C169.51 29.7548 169.671 29.9156 169.868 29.9156H172.215V46.6915C172.215 46.8891 172.374 47.0496 172.571 47.0496H177.456C177.654 47.0496 177.814 46.8891 177.814 46.6915V29.9156H182.376L189.363 46.687C188.57 48.4492 187.79 48.7998 186.725 48.7998C185.864 48.7998 184.958 48.5424 184.031 48.0348C183.944 47.9867 183.841 47.9789 183.746 48.008C183.653 48.0412 183.575 48.1104 183.535 48.2014L181.879 51.838C181.801 52.0098 181.868 52.2116 182.033 52.3007C183.762 53.2379 185.322 53.6379 187.25 53.6379C190.858 53.6379 192.851 51.9555 194.609 47.43L203.085 25.5054C203.127 25.3951 203.114 25.2708 203.047 25.1726C202.98 25.0759 202.871 25.0173 202.753 25.0173H197.667C197.515 25.0173 197.379 25.114 197.329 25.2572L192.119 40.1549L186.413 25.2474C186.361 25.1087 186.227 25.0173 186.079 25.0173H177.734Z" fill="#101010"/>
            <path d="M166.876 24.9959H161.99C161.793 24.9959 161.633 25.1568 161.633 25.3543V46.6915C161.633 46.8891 161.793 47.0497 161.99 47.0497H166.876C167.073 47.0497 167.233 46.8891 167.233 46.6915V25.3543C167.233 25.1568 167.073 24.9959 166.876 24.9959Z" fill="#101010"/>
            <path d="M164.458 15.2806C162.523 15.2806 160.952 16.8494 160.952 18.7865C160.952 20.7251 162.523 22.2954 164.458 22.2954C166.392 22.2954 167.961 20.7251 167.961 18.7865C167.961 16.8494 166.392 15.2806 164.458 15.2806Z" fill="#101010"/>
            <path d="M207.455 27.1181H206.56V28.2608H207.455C207.902 28.2608 208.169 28.042 208.169 27.6892C208.169 27.3175 207.902 27.1181 207.455 27.1181ZM208.036 28.7482L209.008 30.1114H208.188L207.313 28.8611H206.56V30.1114H205.874V26.4984H207.483C208.321 26.4984 208.873 26.9279 208.873 27.6508C208.873 28.243 208.531 28.6049 208.036 28.7482ZM207.273 25.2964C205.512 25.2964 204.18 26.6974 204.18 28.4138C204.18 30.1291 205.503 31.5117 207.255 31.5117C209.016 31.5117 210.35 30.1114 210.35 28.3942C210.35 26.6789 209.026 25.2964 207.273 25.2964ZM207.255 31.856C205.322 31.856 203.817 30.3014 203.817 28.4138C203.817 26.5259 205.341 24.9537 207.273 24.9537C209.206 24.9537 210.711 26.5082 210.711 28.3942C210.711 30.2821 209.188 31.856 207.255 31.856Z" fill="#101010"/>
            </g>
         </svg>