<svg width="150" height="63" viewBox="0 0 150 63" fill="none" xmlns="http://www.w3.org/2000/svg">
<path fill-rule="evenodd" clip-rule="evenodd" d="M149.282 32.1795C149.282 21.5362 144.14 13.1379 134.313 13.1379C124.443 13.1379 118.472 21.5362 118.472 32.0964C118.472 44.6106 125.522 50.9301 135.64 50.9301C140.574 50.9301 144.306 49.8075 147.126 48.2276V39.9125C144.306 41.3261 141.072 42.1992 136.967 42.1992C132.944 42.1992 129.378 40.7856 128.922 35.8797H149.199C149.199 35.3392 149.282 33.1773 149.282 32.1795ZM128.798 28.2298C128.798 23.5318 131.659 21.5778 134.271 21.5778C136.801 21.5778 139.496 23.5318 139.496 28.2298H128.798Z" fill="#9A9B9B"/>
<path fill-rule="evenodd" clip-rule="evenodd" d="M102.466 13.1379C98.402 13.1379 95.7895 15.0504 94.3382 16.3808L93.7991 13.8031H84.6763V62.2802L95.0431 60.0767L95.0846 48.3108C96.5774 49.3918 98.7752 50.9301 102.424 50.9301C109.847 50.9301 116.606 44.9432 116.606 31.7638C116.565 19.7069 109.723 13.1379 102.466 13.1379ZM99.9777 41.7834C97.5312 41.7834 96.0798 40.9104 95.0846 39.8294L95.0431 24.4049C96.1213 23.1992 97.6141 22.3677 99.9777 22.3677C103.751 22.3677 106.364 26.6084 106.364 32.0548C106.364 37.6259 103.793 41.7834 99.9777 41.7834Z" fill="#9A9B9B"/>
<path fill-rule="evenodd" clip-rule="evenodd" d="M70.4116 10.6849L80.8199 8.43982V0L70.4116 2.2035V10.6849Z" fill="#9A9B9B"/>
<path d="M80.8199 13.8448H70.4116V50.2234H80.8199V13.8448Z" fill="#9A9B9B"/>
<path fill-rule="evenodd" clip-rule="evenodd" d="M59.2569 16.9211L58.5934 13.8445H49.6365V50.2231H60.0033V25.5688C62.4499 22.3675 66.5966 22.9496 67.8821 23.4069V13.8445C66.5552 13.3456 61.7035 12.431 59.2569 16.9211Z" fill="#9A9B9B"/>
<path fill-rule="evenodd" clip-rule="evenodd" d="M38.5233 4.82263L28.4052 6.98456L28.3638 40.2865C28.3638 46.4397 32.9667 50.9714 39.1038 50.9714C42.5042 50.9714 44.9922 50.3478 46.3606 49.5994V41.1596C45.0337 41.7001 38.4818 43.6126 38.4818 37.4594V22.7001H46.3606V13.8445H38.4818L38.5233 4.82263Z" fill="#9A9B9B"/>
<path fill-rule="evenodd" clip-rule="evenodd" d="M10.4913 24.4049C10.4913 22.7835 11.8182 22.1598 14.016 22.1598C17.1675 22.1598 21.1484 23.1161 24.2999 24.8207V15.0504C20.8581 13.6784 17.4578 13.1379 14.016 13.1379C5.5981 13.1379 0 17.5449 0 24.9038C0 36.3786 15.7576 34.5493 15.7576 39.4968C15.7576 41.4093 14.0989 42.0329 11.7767 42.0329C8.33495 42.0329 3.9394 40.6193 0.456141 38.7069V48.6018C4.31261 50.2648 8.21054 50.9716 11.7767 50.9716C20.402 50.9716 26.3318 46.6894 26.3318 39.2473C26.2903 26.8578 10.4913 29.0613 10.4913 24.4049Z" fill="#9A9B9B"/>
</svg>
