<svg width="150" height="63" viewBox="0 0 150 63" fill="none" xmlns="http://www.w3.org/2000/svg">
<path fill-rule="evenodd" clip-rule="evenodd" d="M149.283 32.1795C149.283 21.5362 144.141 13.138 134.313 13.138C124.444 13.138 118.472 21.5362 118.472 32.0964C118.472 44.6106 125.522 50.9301 135.64 50.9301C140.574 50.9301 144.306 49.8075 147.126 48.2277V39.9126C144.306 41.3261 141.072 42.1992 136.967 42.1992C132.944 42.1992 129.378 40.7857 128.922 35.8797H149.2C149.2 35.3393 149.283 33.1773 149.283 32.1795ZM128.798 28.2299C128.798 23.5318 131.659 21.5778 134.271 21.5778C136.801 21.5778 139.496 23.5318 139.496 28.2299H128.798Z" fill="#101010"/>
<path fill-rule="evenodd" clip-rule="evenodd" d="M102.466 13.138C98.4021 13.138 95.7896 15.0504 94.3383 16.3808L93.7992 13.8032H84.6764V62.2802L95.0432 60.0767L95.0847 48.3108C96.5775 49.3918 98.7753 50.9301 102.424 50.9301C109.847 50.9301 116.606 44.9432 116.606 31.7638C116.565 19.7069 109.723 13.138 102.466 13.138ZM99.9779 41.7835C97.5313 41.7835 96.0799 40.9104 95.0847 39.8294L95.0432 24.4049C96.1214 23.1992 97.6142 22.3677 99.9779 22.3677C103.751 22.3677 106.364 26.6084 106.364 32.0548C106.364 37.6259 103.793 41.7835 99.9779 41.7835Z" fill="#101010"/>
<path fill-rule="evenodd" clip-rule="evenodd" d="M70.4116 10.6849L80.8199 8.43982V0L70.4116 2.2035V10.6849Z" fill="#101010"/>
<path d="M80.8199 13.8448H70.4116V50.2234H80.8199V13.8448Z" fill="#101010"/>
<path fill-rule="evenodd" clip-rule="evenodd" d="M59.2569 16.9211L58.5934 13.8446H49.6365V50.2231H60.0033V25.5688C62.4499 22.3675 66.5966 22.9496 67.8821 23.4069V13.8446C66.5552 13.3457 61.7035 12.431 59.2569 16.9211Z" fill="#101010"/>
<path fill-rule="evenodd" clip-rule="evenodd" d="M38.5232 4.82265L28.4051 6.98457L28.3636 40.2865C28.3636 46.4397 32.9665 50.9714 39.1037 50.9714C42.504 50.9714 44.9921 50.3478 46.3605 49.5994V41.1596C45.0335 41.7001 38.4817 43.6126 38.4817 37.4594V22.7001H46.3605V13.8445H38.4817L38.5232 4.82265Z" fill="#101010"/>
<path fill-rule="evenodd" clip-rule="evenodd" d="M10.4913 24.4049C10.4913 22.7835 11.8182 22.1598 14.016 22.1598C17.1675 22.1598 21.1484 23.1161 24.2999 24.8207V15.0504C20.8581 13.6784 17.4578 13.138 14.016 13.138C5.5981 13.138 0 17.545 0 24.9038C0 36.3787 15.7576 34.5493 15.7576 39.4968C15.7576 41.4093 14.0989 42.0329 11.7767 42.0329C8.33495 42.0329 3.9394 40.6194 0.456141 38.7069V48.6018C4.31261 50.2649 8.21054 50.9716 11.7767 50.9716C20.402 50.9716 26.3318 46.6894 26.3318 39.2474C26.2903 26.8579 10.4913 29.0614 10.4913 24.4049Z" fill="#101010"/>
</svg>
