<svg width="232" height="24" viewBox="0 0 232 24" fill="none" xmlns="http://www.w3.org/2000/svg">
<path d="M0 0.0687482C0.300079 1.22022 0.899362 2.26936 1.73558 3.10718C2.57181 3.94499 3.61446 4.5409 4.75521 4.833H12.1801L12.5606 4.98425V23.945H17.1935V5.01174L17.6147 4.8605H25.0464C26.1834 4.56055 27.2219 3.96199 28.0569 3.12539C28.8919 2.2888 29.4938 1.24384 29.8016 0.0962475V0.0481237H0V0.0687482ZM162.092 0.0412489H157.472V24H178.626C179.628 23.6074 180.52 22.9723 181.224 22.1501C181.927 21.3279 182.421 20.3438 182.661 19.2839H162.078L162.092 0.0412489ZM126.543 4.75738C129.002 4.06989 131.067 2.13119 131.563 0.0274993L105.681 0.0687482V14.1965H126.855V19.167H110.239C108.973 19.4993 107.79 20.1002 106.77 20.9298C105.75 21.7594 104.916 22.7989 104.323 23.9794H131.42V9.49413H110.253V4.75738H126.543ZM205.459 23.9862H210.051V14.3478H226.749V23.9862H231.334V9.53538L205.459 9.50788V23.9862ZM57.9796 4.81238H75.6418C76.7989 4.53068 77.8573 3.93297 78.7018 3.08439C79.5463 2.23581 80.1444 1.16892 80.431 0L53.1904 0C53.4798 1.16757 54.0788 2.23296 54.9229 3.08109C55.7669 3.92923 56.8239 4.52787 57.9796 4.81238ZM57.9796 14.279H75.6418C76.7982 13.9959 77.8559 13.3977 78.7002 12.5494C79.5445 11.701 80.1431 10.6349 80.431 9.46663H53.1904C53.4812 10.6335 54.0807 11.6982 54.9245 12.5461C55.7683 13.394 56.8245 13.9931 57.9796 14.279ZM57.9796 24H75.6418C76.7982 23.7169 77.8559 23.1187 78.7002 22.2704C79.5445 21.422 80.1431 20.3559 80.431 19.1876H53.1904C53.4805 20.3549 54.0797 21.4199 54.9237 22.2679C55.7676 23.1159 56.8242 23.7148 57.9796 24ZM209.542 4.82612H227.204C228.362 4.54484 229.422 3.94739 230.267 3.09884C231.113 2.2503 231.712 1.1832 232 0.0137496H204.753C205.041 1.182 205.639 2.24813 206.483 3.09649C207.328 3.94484 208.385 4.54302 209.542 4.82612Z" fill="#101010"/>
</svg>
